<svg xmlns="http://www.w3.org/2000/svg">
  <defs>
    <!-- Plane icon for flights/airlines -->
    <symbol id="icon-plane" viewBox="0 0 24 24">
      <path d="M21 16v-2l-8-5V3.5c0-.83-.67-1.5-1.5-1.5S10 2.67 10 3.5V9l-8 5v2l8-2.5V19l-2 1.5V22l3.5-1 3.5 1v-1.5L13 19v-5.5l8 2.5z"/>
    </symbol>
    
    <!-- Location pin for destinations -->
    <symbol id="icon-location" viewBox="0 0 24 24">
      <path d="M12 2C8.13 2 5 5.13 5 9c0 5.25 7 13 7 13s7-7.75 7-13c0-3.87-3.13-7-7-7zm0 9.5c-1.38 0-2.5-1.12-2.5-2.5s1.12-2.5 2.5-2.5 2.5 1.12 2.5 2.5-1.12 2.5-2.5 2.5z"/>
    </symbol>
    
    <!-- Bed icon for accommodations -->
    <symbol id="icon-bed" viewBox="0 0 24 24">
      <path d="M20 9.556V3h-2v2H6V3H4v6.556C2.806 10.043 2 11.193 2 12.5V19h2v-2h16v2h2v-6.5c0-1.307-.806-2.457-2-2.944zM11 9.5C11 8.119 9.881 7 8.5 7S6 8.119 6 9.5H11zm9 3.5H4v-.5c0-.827.673-1.5 1.5-1.5h13c.827 0 1.5.673 1.5 1.5v.5z"/>
    </symbol>
    
    <!-- Hiking icon for activities -->
    <symbol id="icon-activity" viewBox="0 0 24 24">
      <circle cx="13.5" cy="5.5" r="2.5"/>
      <path d="M9.8 8.9L7 23h2.1l1.8-8 2.1 2v6h2v-7.5l-2.1-2 .6-3C14.8 12 16.8 13 19 13v-2c-1.9 0-3.5-1-4.3-2.4l-1-1.6c-.4-.6-1-1-1.7-1-.3 0-.5.1-.8.1L6 8.3V13h2V9.6l1.8-.7"/>
    </symbol>
    
    <!-- Wallet icon for finance -->
    <symbol id="icon-wallet" viewBox="0 0 24 24">
      <path d="M21 7.28V5c0-1.1-.9-2-2-2H5c-1.11 0-2 .9-2 2v14c0 1.1.89 2 2 2h14c1.1 0 2-.9 2-2v-2.28c.59-.35 1-.98 1-1.72V9c0-.74-.41-1.37-1-1.72zM20 9v6h-7V9h7zM5 19V5h14v2h-6c-1.1 0-2 .9-2 2v6c0 1.1.9 2 2 2h6v2H5z"/>
      <circle cx="16" cy="12" r="1.5"/>
    </symbol>
    
    <!-- User icon for traveler -->
    <symbol id="icon-traveler" viewBox="0 0 24 24">
      <path d="M12 12c2.21 0 4-1.79 4-4s-1.79-4-4-4-4 1.79-4 4 1.79 4 4 4zm0 2c-2.67 0-8 1.34-8 4v2h16v-2c0-2.66-5.33-4-8-4z"/>
    </symbol>
    
    <!-- Calendar icon for dates/schedule -->
    <symbol id="icon-calendar" viewBox="0 0 24 24">
      <path d="M19 4h-1V2h-2v2H8V2H6v2H5c-1.11 0-1.99.9-1.99 2L3 20c0 1.1.89 2 2 2h14c1.1 0 2-.9 2-2V6c0-1.1-.9-2-2-2zm0 16H5V10h14v10zM5 8V6h14v2H5zm2 4h10v2H7v-2z"/>
    </symbol>
  </defs>
</svg>

